<svg xmlns="http://www.w3.org/2000/svg" width="95" height="83" fill="none">
  <g filter="url(#a)">
    <path fill="url(#b)" d="M66.657 0H28.343a7.948 7.948 0 0 0-6.887 3.979L2.288 37.235a7.948 7.948 0 0 0 0 7.938L21.456 78.43a7.948 7.948 0 0 0 6.887 3.979h38.314a7.948 7.948 0 0 0 6.886-3.98l19.17-33.256a7.948 7.948 0 0 0 0-7.938L73.542 3.98A7.948 7.948 0 0 0 66.657 0Z"/>
  </g>
  <g filter="url(#c)">
    <path fill="#fff" d="M47.5 25L35 45h8v20l12.5-20H47.5V25Z"/>
  </g>
  <defs>
    <filter id="a" width="92.549" height="82.409" x="1.226" y="0" color-interpolation-filters="sRGB" filterUnits="userSpaceOnUse">
      <feFlood flood-opacity="0" result="BackgroundImageFix"/>
      <feBlend in="SourceGraphic" in2="BackgroundImageFix" result="shape"/>
      <feColorMatrix in="SourceAlpha" result="hardAlpha" values="0 0 0 0 0 0 0 0 0 0 0 0 0 0 0 0 0 0 127 0"/>
      <feOffset/>
      <feGaussianBlur stdDeviation="1.717"/>
      <feComposite in2="hardAlpha" k2="-1" k3="1" operator="arithmetic"/>
      <feColorMatrix values="0 0 0 0 0 0 0 0 0 0 0 0 0 0 0 0 0 0 0.65 0"/>
      <feBlend in2="shape" result="effect1_innerShadow_615_13380"/>
    </filter>
    <filter id="c" width="20.5" height="40" x="35" y="25" color-interpolation-filters="sRGB" filterUnits="userSpaceOnUse">
      <feFlood flood-opacity="0" result="BackgroundImageFix"/>
      <feBlend in="SourceGraphic" in2="BackgroundImageFix" result="shape"/>
      <feColorMatrix in="SourceAlpha" result="hardAlpha" values="0 0 0 0 0 0 0 0 0 0 0 0 0 0 0 0 0 0 127 0"/>
      <feOffset/>
      <feGaussianBlur stdDeviation=".072"/>
      <feComposite in2="hardAlpha" k2="-1" k3="1" operator="arithmetic"/>
      <feColorMatrix values="0 0 0 0 1 0 0 0 0 1 0 0 0 0 1 0 0 0 0.95 0"/>
      <feBlend in2="shape" result="effect1_innerShadow_615_13380"/>
    </filter>
    <linearGradient id="b" x1="47.5" x2="47.5" y1="0" y2="82.409" gradientUnits="userSpaceOnUse">
      <stop stop-color="#2563eb"/>
      <stop offset="1" stop-color="#1e40af"/>
    </linearGradient>
  </defs>
</svg>
